<svg xmlns="http://www.w3.org/2000/svg" viewBox="0 0 800 600"><defs>
<linearGradient id="bg4" x1="0" y1="0" x2="0" y2="1"><stop offset="0" stop-color="#23282f"/><stop offset="1" stop-color="#0c0e12"/></linearGradient>
<radialGradient id="lt4" cx="0.5" cy="0.32" r="0.9"><stop offset="0" stop-color="#39414e" stop-opacity="0.55"/><stop offset="1" stop-color="#0c0e12" stop-opacity="0"/></radialGradient>
<linearGradient id="fl4" x1="0" y1="0" x2="0" y2="1"><stop offset="0" stop-color="#1a1f27"/><stop offset="1" stop-color="#0c0e12"/></linearGradient>
</defs>
<rect width="800" height="600" fill="url(#bg4)"/><rect x="0" y="330" width="800" height="270" fill="#15191f"/><rect x="120" y="90" width="560" height="250" rx="3" fill="#0f1318" stroke="#2a3038"/><rect x="140" y="110" width="250" height="210" fill="#0c0e12" stroke="#2a3038"/><rect x="410" y="110" width="250" height="210" fill="#0c0e12" stroke="#2a3038"/><rect x="300" y="300" width="200" height="14" fill="#3a4150"/><ellipse cx="400" cy="481" rx="158" ry="20" fill="#000" opacity="0.3"/><rect x="256" y="400" width="288" height="60" rx="17" fill="#5a6470"/><rect x="313" y="365" width="158" height="50" rx="14" fill="#5a6470" opacity="0.85"/><rect x="330" y="371" width="57" height="33" rx="3" fill="#9ad3e6" opacity="0.5"/><rect x="400" y="371" width="57" height="33" rx="3" fill="#9ad3e6" opacity="0.5"/><circle cx="325" cy="475" r="18" fill="#15181d"/><circle cx="474" cy="475" r="18" fill="#15181d"/><rect x="362" y="469" width="76" height="20" rx="2" fill="#0d0f14" stroke="#46d27d"/><text x="400" y="484" font-size="13" fill="#e6e7ea" text-anchor="middle" font-family="monospace">BAY · WAITING</text><rect x="230" y="360" width="340" height="150" fill="none" stroke="#ffc24d" stroke-width="2.4" rx="3"/><path d="M230 374 V360 H244 M556 360 H570 V374 M570 496 V510 H556 M244 510 H230 V496" stroke="#ffc24d" stroke-width="3.4" fill="none"/><rect x="230" y="338" width="117" height="20" rx="3" fill="#ffc24d"/><text x="239" y="353" font-size="13" font-weight="700" fill="#0a0c10" font-family="monospace">LOADING BAY</text><rect width="800" height="600" fill="url(#lt4)"/><g opacity="0.04"><line x1="0" y1="0" x2="800" y2="0" stroke="#fff"/><line x1="0" y1="5" x2="800" y2="5" stroke="#fff"/><line x1="0" y1="10" x2="800" y2="10" stroke="#fff"/><line x1="0" y1="15" x2="800" y2="15" stroke="#fff"/><line x1="0" y1="20" x2="800" y2="20" stroke="#fff"/><line x1="0" y1="25" x2="800" y2="25" stroke="#fff"/><line x1="0" y1="30" x2="800" y2="30" stroke="#fff"/><line x1="0" y1="35" x2="800" y2="35" stroke="#fff"/><line x1="0" y1="40" x2="800" y2="40" stroke="#fff"/><line x1="0" y1="45" x2="800" y2="45" stroke="#fff"/><line x1="0" y1="50" x2="800" y2="50" stroke="#fff"/><line x1="0" y1="55" x2="800" y2="55" stroke="#fff"/><line x1="0" y1="60" x2="800" y2="60" stroke="#fff"/><line x1="0" y1="65" x2="800" y2="65" stroke="#fff"/><line x1="0" y1="70" x2="800" y2="70" stroke="#fff"/><line x1="0" y1="75" x2="800" y2="75" stroke="#fff"/><line x1="0" y1="80" x2="800" y2="80" stroke="#fff"/><line x1="0" y1="85" x2="800" y2="85" stroke="#fff"/><line x1="0" y1="90" x2="800" y2="90" stroke="#fff"/><line x1="0" y1="95" x2="800" y2="95" stroke="#fff"/><line x1="0" y1="100" x2="800" y2="100" stroke="#fff"/><line x1="0" y1="105" x2="800" y2="105" stroke="#fff"/><line x1="0" y1="110" x2="800" y2="110" stroke="#fff"/><line x1="0" y1="115" x2="800" y2="115" stroke="#fff"/><line x1="0" y1="120" x2="800" y2="120" stroke="#fff"/><line x1="0" y1="125" x2="800" y2="125" stroke="#fff"/><line x1="0" y1="130" x2="800" y2="130" stroke="#fff"/><line x1="0" y1="135" x2="800" y2="135" stroke="#fff"/><line x1="0" y1="140" x2="800" y2="140" stroke="#fff"/><line x1="0" y1="145" x2="800" y2="145" stroke="#fff"/><line x1="0" y1="150" x2="800" y2="150" stroke="#fff"/><line x1="0" y1="155" x2="800" y2="155" stroke="#fff"/><line x1="0" y1="160" x2="800" y2="160" stroke="#fff"/><line x1="0" y1="165" x2="800" y2="165" stroke="#fff"/><line x1="0" y1="170" x2="800" y2="170" stroke="#fff"/><line x1="0" y1="175" x2="800" y2="175" stroke="#fff"/><line x1="0" y1="180" x2="800" y2="180" stroke="#fff"/><line x1="0" y1="185" x2="800" y2="185" stroke="#fff"/><line x1="0" y1="190" x2="800" y2="190" stroke="#fff"/><line x1="0" y1="195" x2="800" y2="195" stroke="#fff"/><line x1="0" y1="200" x2="800" y2="200" stroke="#fff"/><line x1="0" y1="205" x2="800" y2="205" stroke="#fff"/><line x1="0" y1="210" x2="800" y2="210" stroke="#fff"/><line x1="0" y1="215" x2="800" y2="215" stroke="#fff"/><line x1="0" y1="220" x2="800" y2="220" stroke="#fff"/><line x1="0" y1="225" x2="800" y2="225" stroke="#fff"/><line x1="0" y1="230" x2="800" y2="230" stroke="#fff"/><line x1="0" y1="235" x2="800" y2="235" stroke="#fff"/><line x1="0" y1="240" x2="800" y2="240" stroke="#fff"/><line x1="0" y1="245" x2="800" y2="245" stroke="#fff"/><line x1="0" y1="250" x2="800" y2="250" stroke="#fff"/><line x1="0" y1="255" x2="800" y2="255" stroke="#fff"/><line x1="0" y1="260" x2="800" y2="260" stroke="#fff"/><line x1="0" y1="265" x2="800" y2="265" stroke="#fff"/><line x1="0" y1="270" x2="800" y2="270" stroke="#fff"/><line x1="0" y1="275" x2="800" y2="275" stroke="#fff"/><line x1="0" y1="280" x2="800" y2="280" stroke="#fff"/><line x1="0" y1="285" x2="800" y2="285" stroke="#fff"/><line x1="0" y1="290" x2="800" y2="290" stroke="#fff"/><line x1="0" y1="295" x2="800" y2="295" stroke="#fff"/><line x1="0" y1="300" x2="800" y2="300" stroke="#fff"/><line x1="0" y1="305" x2="800" y2="305" stroke="#fff"/><line x1="0" y1="310" x2="800" y2="310" stroke="#fff"/><line x1="0" y1="315" x2="800" y2="315" stroke="#fff"/><line x1="0" y1="320" x2="800" y2="320" stroke="#fff"/><line x1="0" y1="325" x2="800" y2="325" stroke="#fff"/><line x1="0" y1="330" x2="800" y2="330" stroke="#fff"/><line x1="0" y1="335" x2="800" y2="335" stroke="#fff"/><line x1="0" y1="340" x2="800" y2="340" stroke="#fff"/><line x1="0" y1="345" x2="800" y2="345" stroke="#fff"/><line x1="0" y1="350" x2="800" y2="350" stroke="#fff"/><line x1="0" y1="355" x2="800" y2="355" stroke="#fff"/><line x1="0" y1="360" x2="800" y2="360" stroke="#fff"/><line x1="0" y1="365" x2="800" y2="365" stroke="#fff"/><line x1="0" y1="370" x2="800" y2="370" stroke="#fff"/><line x1="0" y1="375" x2="800" y2="375" stroke="#fff"/><line x1="0" y1="380" x2="800" y2="380" stroke="#fff"/><line x1="0" y1="385" x2="800" y2="385" stroke="#fff"/><line x1="0" y1="390" x2="800" y2="390" stroke="#fff"/><line x1="0" y1="395" x2="800" y2="395" stroke="#fff"/><line x1="0" y1="400" x2="800" y2="400" stroke="#fff"/><line x1="0" y1="405" x2="800" y2="405" stroke="#fff"/><line x1="0" y1="410" x2="800" y2="410" stroke="#fff"/><line x1="0" y1="415" x2="800" y2="415" stroke="#fff"/><line x1="0" y1="420" x2="800" y2="420" stroke="#fff"/><line x1="0" y1="425" x2="800" y2="425" stroke="#fff"/><line x1="0" y1="430" x2="800" y2="430" stroke="#fff"/><line x1="0" y1="435" x2="800" y2="435" stroke="#fff"/><line x1="0" y1="440" x2="800" y2="440" stroke="#fff"/><line x1="0" y1="445" x2="800" y2="445" stroke="#fff"/><line x1="0" y1="450" x2="800" y2="450" stroke="#fff"/><line x1="0" y1="455" x2="800" y2="455" stroke="#fff"/><line x1="0" y1="460" x2="800" y2="460" stroke="#fff"/><line x1="0" y1="465" x2="800" y2="465" stroke="#fff"/><line x1="0" y1="470" x2="800" y2="470" stroke="#fff"/><line x1="0" y1="475" x2="800" y2="475" stroke="#fff"/><line x1="0" y1="480" x2="800" y2="480" stroke="#fff"/><line x1="0" y1="485" x2="800" y2="485" stroke="#fff"/><line x1="0" y1="490" x2="800" y2="490" stroke="#fff"/><line x1="0" y1="495" x2="800" y2="495" stroke="#fff"/><line x1="0" y1="500" x2="800" y2="500" stroke="#fff"/><line x1="0" y1="505" x2="800" y2="505" stroke="#fff"/><line x1="0" y1="510" x2="800" y2="510" stroke="#fff"/><line x1="0" y1="515" x2="800" y2="515" stroke="#fff"/><line x1="0" y1="520" x2="800" y2="520" stroke="#fff"/><line x1="0" y1="525" x2="800" y2="525" stroke="#fff"/><line x1="0" y1="530" x2="800" y2="530" stroke="#fff"/><line x1="0" y1="535" x2="800" y2="535" stroke="#fff"/><line x1="0" y1="540" x2="800" y2="540" stroke="#fff"/><line x1="0" y1="545" x2="800" y2="545" stroke="#fff"/><line x1="0" y1="550" x2="800" y2="550" stroke="#fff"/><line x1="0" y1="555" x2="800" y2="555" stroke="#fff"/><line x1="0" y1="560" x2="800" y2="560" stroke="#fff"/><line x1="0" y1="565" x2="800" y2="565" stroke="#fff"/><line x1="0" y1="570" x2="800" y2="570" stroke="#fff"/><line x1="0" y1="575" x2="800" y2="575" stroke="#fff"/><line x1="0" y1="580" x2="800" y2="580" stroke="#fff"/><line x1="0" y1="585" x2="800" y2="585" stroke="#fff"/><line x1="0" y1="590" x2="800" y2="590" stroke="#fff"/><line x1="0" y1="595" x2="800" y2="595" stroke="#fff"/></g><circle cx="22" cy="22" r="5" fill="#ff4d4d"/><text x="34" y="27" font-size="15" fill="#e6e7ea" font-family="monospace">REC · CAM 15</text><text x="784" y="27" font-size="15" fill="#9aa0ad" font-family="monospace" text-anchor="end">LOADING</text><path d="M16 42 V16 H42 M758 16 H784 V42 M784 558 V584 H758 M42 584 H16 V558" stroke="#ffffff" stroke-opacity="0.18" stroke-width="2" fill="none"/></svg>