<svg xmlns="http://www.w3.org/2000/svg" viewBox="0 0 1280 720"><defs>
<linearGradient id="bg5" x1="0" y1="0" x2="0" y2="1"><stop offset="0" stop-color="#23282f"/><stop offset="1" stop-color="#0c0e12"/></linearGradient>
<radialGradient id="lt5" cx="0.5" cy="0.32" r="0.9"><stop offset="0" stop-color="#39414e" stop-opacity="0.55"/><stop offset="1" stop-color="#0c0e12" stop-opacity="0"/></radialGradient>
<linearGradient id="fl5" x1="0" y1="0" x2="0" y2="1"><stop offset="0" stop-color="#1a1f27"/><stop offset="1" stop-color="#0c0e12"/></linearGradient>
</defs>
<rect width="1280" height="720" fill="url(#bg5)"/><polygon points="256,331 1024,331 1280,720 0,720" fill="url(#fl5)"/><g stroke="#272d36" stroke-width="1.4" opacity="0.7"><line x1="0" y1="720" x2="256" y2="331"/><line x1="1280" y1="720" x2="1024" y2="331"/><line x1="64" y1="428" x2="1216" y2="428"/><line x1="128" y1="525" x2="1152" y2="525"/><line x1="192" y1="622" x2="1088" y2="622"/></g><ellipse cx="360" cy="523" rx="62" ry="5" fill="#000" opacity="0.3"/><circle cx="360" cy="345" r="26" fill="#3a4150"/><path d="M316 520 Q316 369 360 369 Q404 369 404 520 Z" fill="#3a4150"/><ellipse cx="470" cy="519" rx="62" ry="5" fill="#000" opacity="0.3"/><circle cx="470" cy="341" r="26" fill="#3a4150"/><path d="M426 516 Q426 365 470 365 Q514 365 514 516 Z" fill="#3a4150"/><ellipse cx="580" cy="515" rx="62" ry="5" fill="#000" opacity="0.3"/><circle cx="580" cy="337" r="26" fill="#3a4150"/><path d="M536 512 Q536 361 580 361 Q624 361 624 512 Z" fill="#3a4150"/><ellipse cx="690" cy="511" rx="62" ry="5" fill="#000" opacity="0.3"/><circle cx="690" cy="333" r="26" fill="#3a4150"/><path d="M646 508 Q646 357 690 357 Q734 357 734 508 Z" fill="#3a4150"/><rect x="300" y="540" width="520" height="30" rx="3" fill="#262b35"/><rect x="300" y="300" width="430" height="260" fill="none" stroke="#ffc24d" stroke-width="2.4" rx="3"/><path d="M300 314 V300 H314 M716 300 H730 V314 M730 546 V560 H716 M314 560 H300 V546" stroke="#ffc24d" stroke-width="3.4" fill="none"/><rect x="300" y="278" width="162" height="20" rx="3" fill="#ffc24d"/><text x="309" y="293" font-size="13" font-weight="700" fill="#0a0c10" font-family="monospace">QUEUE · 4 PEOPLE</text><rect width="1280" height="720" fill="url(#lt5)"/><g opacity="0.04"><line x1="0" y1="0" x2="1280" y2="0" stroke="#fff"/><line x1="0" y1="5" x2="1280" y2="5" stroke="#fff"/><line x1="0" y1="10" x2="1280" y2="10" stroke="#fff"/><line x1="0" y1="15" x2="1280" y2="15" stroke="#fff"/><line x1="0" y1="20" x2="1280" y2="20" stroke="#fff"/><line x1="0" y1="25" x2="1280" y2="25" stroke="#fff"/><line x1="0" y1="30" x2="1280" y2="30" stroke="#fff"/><line x1="0" y1="35" x2="1280" y2="35" stroke="#fff"/><line x1="0" y1="40" x2="1280" y2="40" stroke="#fff"/><line x1="0" y1="45" x2="1280" y2="45" stroke="#fff"/><line x1="0" y1="50" x2="1280" y2="50" stroke="#fff"/><line x1="0" y1="55" x2="1280" y2="55" stroke="#fff"/><line x1="0" y1="60" x2="1280" y2="60" stroke="#fff"/><line x1="0" y1="65" x2="1280" y2="65" stroke="#fff"/><line x1="0" y1="70" x2="1280" y2="70" stroke="#fff"/><line x1="0" y1="75" x2="1280" y2="75" stroke="#fff"/><line x1="0" y1="80" x2="1280" y2="80" stroke="#fff"/><line x1="0" y1="85" x2="1280" y2="85" stroke="#fff"/><line x1="0" y1="90" x2="1280" y2="90" stroke="#fff"/><line x1="0" y1="95" x2="1280" y2="95" stroke="#fff"/><line x1="0" y1="100" x2="1280" y2="100" stroke="#fff"/><line x1="0" y1="105" x2="1280" y2="105" stroke="#fff"/><line x1="0" y1="110" x2="1280" y2="110" stroke="#fff"/><line x1="0" y1="115" x2="1280" y2="115" stroke="#fff"/><line x1="0" y1="120" x2="1280" y2="120" stroke="#fff"/><line x1="0" y1="125" x2="1280" y2="125" stroke="#fff"/><line x1="0" y1="130" x2="1280" y2="130" stroke="#fff"/><line x1="0" y1="135" x2="1280" y2="135" stroke="#fff"/><line x1="0" y1="140" x2="1280" y2="140" stroke="#fff"/><line x1="0" y1="145" x2="1280" y2="145" stroke="#fff"/><line x1="0" y1="150" x2="1280" y2="150" stroke="#fff"/><line x1="0" y1="155" x2="1280" y2="155" stroke="#fff"/><line x1="0" y1="160" x2="1280" y2="160" stroke="#fff"/><line x1="0" y1="165" x2="1280" y2="165" stroke="#fff"/><line x1="0" y1="170" x2="1280" y2="170" stroke="#fff"/><line x1="0" y1="175" x2="1280" y2="175" stroke="#fff"/><line x1="0" y1="180" x2="1280" y2="180" stroke="#fff"/><line x1="0" y1="185" x2="1280" y2="185" stroke="#fff"/><line x1="0" y1="190" x2="1280" y2="190" stroke="#fff"/><line x1="0" y1="195" x2="1280" y2="195" stroke="#fff"/><line x1="0" y1="200" x2="1280" y2="200" stroke="#fff"/><line x1="0" y1="205" x2="1280" y2="205" stroke="#fff"/><line x1="0" y1="210" x2="1280" y2="210" stroke="#fff"/><line x1="0" y1="215" x2="1280" y2="215" stroke="#fff"/><line x1="0" y1="220" x2="1280" y2="220" stroke="#fff"/><line x1="0" y1="225" x2="1280" y2="225" stroke="#fff"/><line x1="0" y1="230" x2="1280" y2="230" stroke="#fff"/><line x1="0" y1="235" x2="1280" y2="235" stroke="#fff"/><line x1="0" y1="240" x2="1280" y2="240" stroke="#fff"/><line x1="0" y1="245" x2="1280" y2="245" stroke="#fff"/><line x1="0" y1="250" x2="1280" y2="250" stroke="#fff"/><line x1="0" y1="255" x2="1280" y2="255" stroke="#fff"/><line x1="0" y1="260" x2="1280" y2="260" stroke="#fff"/><line x1="0" y1="265" x2="1280" y2="265" stroke="#fff"/><line x1="0" y1="270" x2="1280" y2="270" stroke="#fff"/><line x1="0" y1="275" x2="1280" y2="275" stroke="#fff"/><line x1="0" y1="280" x2="1280" y2="280" stroke="#fff"/><line x1="0" y1="285" x2="1280" y2="285" stroke="#fff"/><line x1="0" y1="290" x2="1280" y2="290" stroke="#fff"/><line x1="0" y1="295" x2="1280" y2="295" stroke="#fff"/><line x1="0" y1="300" x2="1280" y2="300" stroke="#fff"/><line x1="0" y1="305" x2="1280" y2="305" stroke="#fff"/><line x1="0" y1="310" x2="1280" y2="310" stroke="#fff"/><line x1="0" y1="315" x2="1280" y2="315" stroke="#fff"/><line x1="0" y1="320" x2="1280" y2="320" stroke="#fff"/><line x1="0" y1="325" x2="1280" y2="325" stroke="#fff"/><line x1="0" y1="330" x2="1280" y2="330" stroke="#fff"/><line x1="0" y1="335" x2="1280" y2="335" stroke="#fff"/><line x1="0" y1="340" x2="1280" y2="340" stroke="#fff"/><line x1="0" y1="345" x2="1280" y2="345" stroke="#fff"/><line x1="0" y1="350" x2="1280" y2="350" stroke="#fff"/><line x1="0" y1="355" x2="1280" y2="355" stroke="#fff"/><line x1="0" y1="360" x2="1280" y2="360" stroke="#fff"/><line x1="0" y1="365" x2="1280" y2="365" stroke="#fff"/><line x1="0" y1="370" x2="1280" y2="370" stroke="#fff"/><line x1="0" y1="375" x2="1280" y2="375" stroke="#fff"/><line x1="0" y1="380" x2="1280" y2="380" stroke="#fff"/><line x1="0" y1="385" x2="1280" y2="385" stroke="#fff"/><line x1="0" y1="390" x2="1280" y2="390" stroke="#fff"/><line x1="0" y1="395" x2="1280" y2="395" stroke="#fff"/><line x1="0" y1="400" x2="1280" y2="400" stroke="#fff"/><line x1="0" y1="405" x2="1280" y2="405" stroke="#fff"/><line x1="0" y1="410" x2="1280" y2="410" stroke="#fff"/><line x1="0" y1="415" x2="1280" y2="415" stroke="#fff"/><line x1="0" y1="420" x2="1280" y2="420" stroke="#fff"/><line x1="0" y1="425" x2="1280" y2="425" stroke="#fff"/><line x1="0" y1="430" x2="1280" y2="430" stroke="#fff"/><line x1="0" y1="435" x2="1280" y2="435" stroke="#fff"/><line x1="0" y1="440" x2="1280" y2="440" stroke="#fff"/><line x1="0" y1="445" x2="1280" y2="445" stroke="#fff"/><line x1="0" y1="450" x2="1280" y2="450" stroke="#fff"/><line x1="0" y1="455" x2="1280" y2="455" stroke="#fff"/><line x1="0" y1="460" x2="1280" y2="460" stroke="#fff"/><line x1="0" y1="465" x2="1280" y2="465" stroke="#fff"/><line x1="0" y1="470" x2="1280" y2="470" stroke="#fff"/><line x1="0" y1="475" x2="1280" y2="475" stroke="#fff"/><line x1="0" y1="480" x2="1280" y2="480" stroke="#fff"/><line x1="0" y1="485" x2="1280" y2="485" stroke="#fff"/><line x1="0" y1="490" x2="1280" y2="490" stroke="#fff"/><line x1="0" y1="495" x2="1280" y2="495" stroke="#fff"/><line x1="0" y1="500" x2="1280" y2="500" stroke="#fff"/><line x1="0" y1="505" x2="1280" y2="505" stroke="#fff"/><line x1="0" y1="510" x2="1280" y2="510" stroke="#fff"/><line x1="0" y1="515" x2="1280" y2="515" stroke="#fff"/><line x1="0" y1="520" x2="1280" y2="520" stroke="#fff"/><line x1="0" y1="525" x2="1280" y2="525" stroke="#fff"/><line x1="0" y1="530" x2="1280" y2="530" stroke="#fff"/><line x1="0" y1="535" x2="1280" y2="535" stroke="#fff"/><line x1="0" y1="540" x2="1280" y2="540" stroke="#fff"/><line x1="0" y1="545" x2="1280" y2="545" stroke="#fff"/><line x1="0" y1="550" x2="1280" y2="550" stroke="#fff"/><line x1="0" y1="555" x2="1280" y2="555" stroke="#fff"/><line x1="0" y1="560" x2="1280" y2="560" stroke="#fff"/><line x1="0" y1="565" x2="1280" y2="565" stroke="#fff"/><line x1="0" y1="570" x2="1280" y2="570" stroke="#fff"/><line x1="0" y1="575" x2="1280" y2="575" stroke="#fff"/><line x1="0" y1="580" x2="1280" y2="580" stroke="#fff"/><line x1="0" y1="585" x2="1280" y2="585" stroke="#fff"/><line x1="0" y1="590" x2="1280" y2="590" stroke="#fff"/><line x1="0" y1="595" x2="1280" y2="595" stroke="#fff"/><line x1="0" y1="600" x2="1280" y2="600" stroke="#fff"/><line x1="0" y1="605" x2="1280" y2="605" stroke="#fff"/><line x1="0" y1="610" x2="1280" y2="610" stroke="#fff"/><line x1="0" y1="615" x2="1280" y2="615" stroke="#fff"/><line x1="0" y1="620" x2="1280" y2="620" stroke="#fff"/><line x1="0" y1="625" x2="1280" y2="625" stroke="#fff"/><line x1="0" y1="630" x2="1280" y2="630" stroke="#fff"/><line x1="0" y1="635" x2="1280" y2="635" stroke="#fff"/><line x1="0" y1="640" x2="1280" y2="640" stroke="#fff"/><line x1="0" y1="645" x2="1280" y2="645" stroke="#fff"/><line x1="0" y1="650" x2="1280" y2="650" stroke="#fff"/><line x1="0" y1="655" x2="1280" y2="655" stroke="#fff"/><line x1="0" y1="660" x2="1280" y2="660" stroke="#fff"/><line x1="0" y1="665" x2="1280" y2="665" stroke="#fff"/><line x1="0" y1="670" x2="1280" y2="670" stroke="#fff"/><line x1="0" y1="675" x2="1280" y2="675" stroke="#fff"/><line x1="0" y1="680" x2="1280" y2="680" stroke="#fff"/><line x1="0" y1="685" x2="1280" y2="685" stroke="#fff"/><line x1="0" y1="690" x2="1280" y2="690" stroke="#fff"/><line x1="0" y1="695" x2="1280" y2="695" stroke="#fff"/><line x1="0" y1="700" x2="1280" y2="700" stroke="#fff"/><line x1="0" y1="705" x2="1280" y2="705" stroke="#fff"/><line x1="0" y1="710" x2="1280" y2="710" stroke="#fff"/><line x1="0" y1="715" x2="1280" y2="715" stroke="#fff"/></g><circle cx="22" cy="22" r="5" fill="#ff4d4d"/><text x="34" y="27" font-size="15" fill="#e6e7ea" font-family="monospace">REC · CAM 02</text><text x="1264" y="27" font-size="15" fill="#9aa0ad" font-family="monospace" text-anchor="end">CHECKOUT</text><path d="M16 42 V16 H42 M1238 16 H1264 V42 M1264 678 V704 H1238 M42 704 H16 V678" stroke="#ffffff" stroke-opacity="0.18" stroke-width="2" fill="none"/></svg>